<svg width="35" height="29" viewBox="0 0 35 29" fill="none" xmlns="http://www.w3.org/2000/svg">
<path d="M11.4128 0.15321C8.56906 0.334389 5.89077 1.57113 3.77177 3.69013C-0.686802 8.15658 -1.26185 15.2541 2.41687 20.4688C2.70833 20.8785 3.3779 21.6504 3.91356 22.1861L4.89035 23.1629L4.63827 23.8797C4.18927 25.1716 3.38578 26.6447 2.45625 27.8578C2.31446 28.0468 2.1963 28.2832 2.1963 28.3856C2.1963 28.6692 2.51927 29 2.79498 29C2.98403 29 5.35511 28.291 14.5558 25.4867L15.6902 25.1401L16.5015 25.5576C17.3602 25.9909 18.3842 26.3532 19.4083 26.5895C19.9045 26.6998 20.3772 26.7313 21.6533 26.7313C23.3942 26.7313 23.7802 26.6762 25.1981 26.2351C25.8283 26.0381 26.1749 25.9909 27.3644 25.9121C31.2794 25.6758 33.4929 25.5025 33.6269 25.4316C33.8317 25.3213 34.0207 25.0377 34.0207 24.8408C34.0207 24.7541 33.8632 24.4705 33.6662 24.2106C32.9888 23.3047 32.5634 21.9419 32.4768 20.3507C32.4295 19.4999 32.4295 19.4684 32.7131 18.6492C33.2566 17.0658 33.3433 16.4672 33.3433 14.5215C33.3433 13.0248 33.3196 12.6782 33.17 11.9928C32.6264 9.47997 31.5551 7.51851 29.7748 5.73036C28.0418 4.00522 26.1985 2.98117 23.9771 2.50853C22.9137 2.28797 21.0704 2.22495 20.1172 2.37462L19.4083 2.49278L18.8884 2.14618C17.1632 1.01184 15.123 0.287125 13.3427 0.176842C12.9567 0.15321 12.5471 0.129578 12.4368 0.113823C12.3265 0.105946 11.8697 0.1217 11.4128 0.15321ZM14.3668 1.63415C19.0853 2.54792 22.3465 6.1321 23.1185 11.2524C23.276 12.3079 23.2682 13.9543 23.1106 14.939C22.8428 16.5459 22.0944 18.3262 21.1098 19.7205C20.5032 20.5791 19.2428 21.8238 18.3606 22.4224C16.9427 23.3913 16.3676 23.6119 10.2312 25.471C7.13539 26.4162 4.55162 27.204 4.49648 27.2276C4.43346 27.2434 4.49648 27.0858 4.6304 26.8731C5.27634 25.8176 6.09558 23.7931 6.19011 23.0054L6.22949 22.6351L5.4969 22.0049C2.52715 19.4527 0.928051 15.5928 1.32192 11.9219C1.5031 10.2441 1.85758 8.96007 2.51927 7.5579C3.08644 6.35267 3.69299 5.49404 4.63827 4.55664C6.38704 2.80787 8.49817 1.79957 11.0189 1.48448C11.8618 1.38207 13.4451 1.45297 14.3668 1.63415ZM23.662 3.72164C26.813 4.42272 29.4204 6.4472 30.8855 9.32242C31.4212 10.378 31.6654 11.0476 31.9096 12.1268C32.0671 12.8357 32.0908 13.1508 32.0908 14.5215C32.0829 16.286 31.9647 17.0501 31.4842 18.3341C31.2321 18.9958 31.2243 19.0352 31.2321 20.1931C31.2479 21.2251 31.2715 21.485 31.4842 22.2806C31.6103 22.7769 31.8308 23.4307 31.9647 23.7301C32.0986 24.0294 32.2011 24.2815 32.1932 24.2894C32.1774 24.3051 30.7201 24.4075 28.9398 24.5257C25.7889 24.7305 25.6865 24.7462 24.883 24.9983C23.7014 25.3685 23.0318 25.471 21.6927 25.471C20.133 25.471 18.9593 25.2425 17.691 24.7069L17.3129 24.5414L17.8486 24.25C21.3303 22.3673 23.5596 19.2085 24.308 15.1123C24.5207 13.9385 24.5049 11.4887 24.2686 10.3228C23.7959 7.96752 22.7404 5.81701 21.2673 4.22579C20.9601 3.89494 20.708 3.60348 20.708 3.57197C20.708 3.46957 23.087 3.5956 23.662 3.72164Z" fill="#990000"/>
<path d="M5.62296 9.95267C5.49692 10.0708 5.42603 10.2363 5.42603 10.3859C5.42603 10.5356 5.49692 10.701 5.62296 10.8192L5.81201 11.0161H9.12837H12.4526L12.681 10.7877C12.9252 10.5356 12.9568 10.3938 12.815 10.126C12.6259 9.75574 12.6574 9.76362 9.14413 9.75574H5.81201L5.62296 9.95267Z" fill="#990000"/>
<path d="M15.0207 9.86614C14.6741 10.1261 14.6898 10.6381 15.0522 10.8902C15.2964 11.0635 16.9112 11.0714 17.2342 10.8981C17.6123 10.709 17.6753 10.26 17.3602 9.95279C17.1791 9.76373 17.1318 9.75585 16.1629 9.75585C15.4618 9.76373 15.1152 9.79524 15.0207 9.86614Z" fill="#990000"/>
<path d="M5.38673 14.4901C5.00074 14.7028 4.90621 15.2227 5.1898 15.5063C5.34735 15.6638 5.44975 15.6638 11.2869 15.6638H17.2342L17.3918 15.459C17.6124 15.1833 17.5966 14.9312 17.3682 14.6634L17.1791 14.4428L11.3577 14.4271C7.23003 14.4113 5.49701 14.435 5.38673 14.4901Z" fill="#990000"/>
</svg>
