<svg width="28" height="32" viewBox="0 0 28 32" fill="none" xmlns="http://www.w3.org/2000/svg">
<path fill-rule="evenodd" clip-rule="evenodd" d="M1.54192 12.4295C1.54192 12.1614 1.75983 11.9446 2.02828 11.9446H3.49914C3.76374 11.9446 3.98166 12.1614 3.98166 12.4295C3.98166 12.6971 3.76374 12.9139 3.49914 12.9139H2.02828C1.75983 12.9139 1.54192 12.6972 1.54192 12.4295ZM5.18399 4.3262C5.13868 4.28134 5.10271 4.22794 5.07817 4.1691C5.05362 4.11025 5.04098 4.04713 5.04098 3.98337C5.04098 3.91961 5.05362 3.85648 5.07817 3.79763C5.10271 3.73879 5.13868 3.68539 5.18399 3.64053C5.2289 3.59547 5.28227 3.55972 5.34102 3.53533C5.39978 3.51093 5.46278 3.49837 5.5264 3.49837C5.59002 3.49837 5.65301 3.51093 5.71177 3.53533C5.77053 3.55972 5.82389 3.59547 5.86881 3.64053L6.90776 4.67949C7.21675 4.98755 6.9913 5.50715 6.56531 5.50715C6.50166 5.50736 6.43861 5.49491 6.37982 5.47052C6.32102 5.44613 6.26767 5.41029 6.22287 5.36508L5.18399 4.3262ZM13.4877 1.95415V0.484825C13.4877 0.217144 13.7056 0 13.9741 0C14.2388 0 14.4567 0.217144 14.4567 0.484825V1.95415C14.4567 2.22183 14.2388 2.43897 13.9741 2.43897C13.7056 2.43897 13.4877 2.22183 13.4877 1.95415ZM21.0365 5.36508C20.9912 5.32023 20.9552 5.26684 20.9307 5.208C20.9061 5.14916 20.8935 5.08604 20.8935 5.02228C20.8935 4.95853 20.9061 4.8954 20.9307 4.83656C20.9552 4.77773 20.9912 4.72434 21.0365 4.67949L22.0755 3.64053C22.1204 3.59547 22.1738 3.55972 22.2325 3.53533C22.2913 3.51093 22.3543 3.49837 22.4179 3.49837C22.4815 3.49837 22.5445 3.51093 22.6033 3.53533C22.662 3.55972 22.7154 3.59547 22.7603 3.64053C22.8056 3.68539 22.8416 3.73879 22.8661 3.79763C22.8907 3.85648 22.9033 3.91961 22.9033 3.98337C22.9033 4.04713 22.8907 4.11025 22.8661 4.1691C22.8416 4.22794 22.8056 4.28134 22.7603 4.3262L21.7214 5.36515C21.5327 5.55491 21.2232 5.55414 21.0365 5.36508ZM23.9627 12.4295C23.9627 12.1614 24.1806 11.9446 24.4491 11.9446H25.916C26.1845 11.9446 26.4025 12.1614 26.4025 12.4295C26.4025 12.6971 26.1845 12.9139 25.916 12.9139H24.4491C24.1806 12.9139 23.9627 12.6972 23.9627 12.4295ZM13.052 11.7369C13.1716 11.7059 13.2747 11.6301 13.3399 11.5252L13.9741 10.5189L14.6045 11.5252C14.6706 11.6293 14.7733 11.7049 14.8924 11.7369L16.0714 12.04L15.3205 12.9276C15.2426 13.0225 15.1999 13.144 15.2076 13.2677L15.2777 14.5078L14.1571 14.0443C14.0985 14.0199 14.0357 14.0073 13.9722 14.0073C13.9088 14.0073 13.8459 14.0199 13.7874 14.0443L12.6667 14.5078L12.7368 13.2677C12.7446 13.1439 12.7018 13.0225 12.624 12.9276L11.873 12.04L13.052 11.7369ZM11.7562 13.4058L11.655 15.2233C11.6366 15.5839 11.9955 15.8338 12.3243 15.6989L13.9741 15.0171L15.6201 15.6989C15.9444 15.8342 16.312 15.5831 16.2894 15.2233L16.1882 13.4058L17.3089 12.0758C17.5417 11.8017 17.407 11.3827 17.0598 11.2937L15.3243 10.8458L14.3827 9.34998C14.1911 9.04653 13.7518 9.04899 13.5616 9.34998L12.62 10.8458L10.8845 11.2937C10.5409 11.3828 10.4055 11.805 10.6354 12.0758L11.7562 13.4058ZM26.3558 23.3348C24.5698 25.0271 21.8732 27.3454 19.663 28.7782C18.0248 29.8409 16.2854 30.8421 14.6667 30.9736C13.3311 31.0826 11.8735 30.5623 10.4838 30.3619C8.25047 30.0399 6.11741 30.0921 3.8532 30.1071V25.0743C4.66686 24.8802 5.46229 24.7046 6.28517 24.4805C6.91161 24.3096 7.45643 24.0365 7.98171 23.7723C8.9389 23.2929 9.76387 22.8789 10.8417 23.2045L15.1765 24.5112C15.6201 24.645 15.873 25.1139 15.7407 25.5575C15.5928 26.0385 15.0831 26.1988 14.6512 26.1085C13.7635 25.9221 12.635 25.6204 11.8029 25.5411C11.4409 25.5065 11.0791 25.5166 10.6939 25.5719C10.4293 25.61 10.2465 25.8556 10.2853 26.1209C10.3242 26.3859 10.5654 26.5696 10.834 26.5315C11.1375 26.4875 11.4254 26.4793 11.7134 26.5065C12.4574 26.5773 13.6212 26.8828 14.4527 27.0575C15.2855 27.2325 16.1404 26.8884 16.5345 26.1575C17.0792 26.1049 17.6046 25.9952 18.1027 25.8287C20.0027 25.1932 22.9348 23.5192 25.4453 22.1087C25.7566 21.9337 26.1301 22.0037 26.3597 22.2796L26.4141 22.3477C26.6554 22.6406 26.6281 23.0741 26.3558 23.3348ZM2.88432 30.7763C2.88432 30.914 2.76756 31.0307 2.62748 31.0307H1.61976C1.47969 31.0307 1.36292 30.914 1.36292 30.7763V24.5349C1.36292 24.3967 1.47969 24.28 1.61976 24.28H2.62756C2.76763 24.28 2.8844 24.3967 2.8844 24.5349L2.88432 30.7763ZM27.1651 21.7313L27.1067 21.6632C26.5853 21.0282 25.6826 20.8601 24.9666 21.264C22.5418 22.6386 19.5513 24.3242 17.7952 24.9092C17.4505 25.0233 17.0963 25.1063 16.7368 25.1574C16.6746 24.4423 16.1843 23.8026 15.4566 23.5827L11.1219 22.276C9.67441 21.8391 8.59261 22.3811 7.54596 22.9056C7.06345 23.1485 6.56147 23.3994 6.02841 23.5445C5.28775 23.7467 4.53317 23.9162 3.77151 24.0971C3.59644 23.638 3.14892 23.3107 2.62748 23.3107H1.61976C0.942711 23.3107 0.394043 23.8597 0.394043 24.5349V30.7763C0.394043 31.451 0.942711 32 1.61976 32H2.62756C3.19954 32 3.67821 31.6066 3.81436 31.077C5.99865 31.0539 8.24216 31.0174 10.3476 31.3214C11.805 31.5319 13.2195 32.0655 14.7485 31.9401C16.5773 31.7911 18.4451 30.7234 20.1883 29.5918C23.0405 27.7439 26.1379 24.8742 27.0212 24.0387C27.6632 23.429 27.7255 22.4157 27.1651 21.7313ZM7.10621 8.73285V16.1252C7.10621 16.635 7.52258 17.0494 8.03233 17.0494H11.0519C11.7796 17.0494 12.406 17.3798 12.8146 17.9794L13.9741 19.6728L15.1298 17.9794C15.5384 17.3797 16.1648 17.0494 16.8925 17.0494H19.9159C20.4217 17.0494 20.8381 16.635 20.8381 16.1252V8.73285C20.8381 8.22349 20.4217 7.80912 19.9159 7.80912H8.03233C7.52258 7.80912 7.10621 8.22349 7.10621 8.73285ZM6.13733 8.73285V16.1252C6.13733 17.1696 6.9856 18.0191 8.03233 18.0191H11.0519C11.4527 18.0191 11.7873 18.1946 12.013 18.5269L13.5734 20.8059C13.7641 21.0858 14.1778 21.0895 14.3711 20.8059L15.9314 18.5269C16.1571 18.1946 16.4918 18.0191 16.8926 18.0191H19.916C20.9588 18.0191 21.807 17.1696 21.807 16.1252V8.73285C21.807 7.68882 20.9588 6.8394 19.916 6.8394H8.03233C6.9856 6.83947 6.13733 7.6889 6.13733 8.73285Z" fill="white"/>
</svg>
