<svg width="45" height="49" viewBox="0 0 45 49" fill="none" xmlns="http://www.w3.org/2000/svg">
<path d="M2.87214 0.107618C2.23057 0.308708 1.91457 0.519373 1.45494 1.02689C0.669728 1.89828 0.717607 1.11307 0.717607 12.6614C0.717607 24.2097 0.669728 23.4245 1.45494 24.2959C1.97202 24.8704 2.6519 25.2439 3.31262 25.3205L3.78183 25.3779V27.3314C3.78183 28.9401 3.81056 29.3518 3.93504 29.6199C4.22232 30.2328 4.89262 30.5201 5.66825 30.3764C5.98425 30.319 6.37685 29.9742 8.52181 27.8293L11.0211 25.3492H14.0566H17.1016L17.3315 25.1098C17.6379 24.8129 17.6379 24.4491 17.3315 24.1522L17.1016 23.9128H13.8363C11.1839 23.9128 10.5231 23.9416 10.3125 24.0469C10.1688 24.1235 8.98144 25.2726 7.66 26.5844L5.26607 28.988L5.21819 26.6419C5.17989 24.6023 5.15116 24.2767 5.00752 24.1426C4.89262 24.0182 4.60534 23.9607 3.97335 23.9128C3.02535 23.8458 2.75723 23.7213 2.36463 23.1468L2.15396 22.8308V12.6901C2.15396 1.44822 2.10608 2.25258 2.79554 1.72591L3.14026 1.45779L13.1086 1.42907C18.5955 1.41949 23.2205 1.42907 23.3929 1.45779C23.8238 1.5344 24.4366 2.10894 24.5611 2.53985C24.6186 2.76966 24.6569 5.38383 24.6569 9.66418C24.6569 16.3193 24.6569 16.4438 24.8484 16.6353C25.1357 16.9226 25.6432 16.8938 25.9017 16.5683C26.1028 16.3193 26.1028 16.3001 26.0741 9.31945L26.0454 2.31961L25.7964 1.78337C25.49 1.13222 25.0112 0.634281 24.3409 0.27998L23.8429 0.0214367L13.5491 0.002285C5.41928 -0.00728989 3.17856 0.0118599 2.87214 0.107618Z" fill="#990000"/>
<path d="M12.7063 5.69014C12.5148 5.89122 11.787 7.69146 9.91975 12.6038C7.52583 18.895 7.40134 19.2685 7.52583 19.4983C7.60243 19.6324 7.7748 19.8047 7.90886 19.8813C8.11952 19.9962 8.18655 19.9962 8.43552 19.8813C8.70364 19.7473 8.96218 19.2015 9.78569 17.0278L9.89103 16.7309L13.367 16.7501L16.843 16.7788L17.092 17.4204C17.3792 18.196 17.5612 18.3875 17.9538 18.3779C18.356 18.3684 18.6241 18.1194 18.6241 17.7459C18.6241 17.2959 14.315 5.9391 14.0373 5.66141C13.7022 5.32626 13.051 5.33583 12.7063 5.69014ZM16.2301 15.218C16.2301 15.2658 14.9278 15.2946 13.3479 15.2946C10.6475 15.2946 10.4656 15.285 10.5134 15.1222C10.5422 14.9977 11.9881 11.1866 13.2808 7.82552C13.3574 7.61485 13.5681 8.10321 14.8034 11.3685C15.5886 13.4465 16.2301 15.1797 16.2301 15.218Z" fill="#990000"/>
<path d="M21.3438 18.6557C20.8554 18.7993 20.1373 19.326 19.8021 19.8048C19.1701 20.6857 19.1893 20.3123 19.218 31.4871L19.2467 41.5799L19.467 42.0683C19.7447 42.6811 20.4437 43.3706 21.0661 43.6579L21.5449 43.8781L27.9606 43.9068L34.3763 43.9356L36.866 46.4157C38.9822 48.5223 39.4132 48.8958 39.71 48.9532C40.1792 49.0394 40.591 48.9341 40.9453 48.6468C41.4815 48.1967 41.5102 48.0435 41.5102 45.9082V43.9451L41.9699 43.8781C43.004 43.7249 43.8563 43.1025 44.3063 42.1545L44.5745 41.5799V31.2669C44.5745 21.04 44.5745 20.9443 44.3734 20.4176C44.1053 19.709 43.4158 19.0196 42.7072 18.7514C42.1805 18.5504 42.0944 18.5504 31.9058 18.5599C26.0646 18.5599 21.5066 18.6078 21.3438 18.6557ZM42.3816 20.207C42.554 20.3219 42.803 20.5708 42.9179 20.7432L43.1381 21.0688V31.2382V41.4076L42.9179 41.7331C42.5923 42.2215 41.989 42.4896 41.1942 42.4896C40.6293 42.4896 40.5144 42.5184 40.3133 42.729L40.0739 42.9588V45.2857V47.6126L37.5076 45.0463L34.9413 42.4896H28.5352C24.4751 42.4896 21.9949 42.4513 21.7651 42.3939C21.3438 42.2694 20.8746 41.7619 20.731 41.2735C20.6543 41.015 20.6352 37.9699 20.6543 30.9892L20.6831 21.0783L20.932 20.6953C21.43 19.9388 20.616 19.9867 31.9441 19.9867H42.056L42.3816 20.207Z" fill="#990000"/>
<path d="M31.3887 23.3191C30.3641 23.683 29.6938 24.382 29.397 25.3874C29.1385 26.2397 29.2821 27.0919 29.7992 27.8675C30.1056 28.3176 30.1152 28.3751 29.9715 28.4612C27.9894 29.6199 26.8594 31.6404 26.9839 33.8236C27.0414 34.944 27.3382 35.825 27.9606 36.7442C28.7746 37.9412 30.1726 38.8796 31.5324 39.1477C32.3655 39.3009 33.8401 39.2148 34.587 38.9466C35.3914 38.6689 36.3202 38.0561 36.4447 37.7305C36.5692 37.4049 36.4064 37.0602 36.0425 36.8496C35.8127 36.7251 35.7553 36.7346 35.4201 36.9166C34.0221 37.7018 33.8784 37.7497 32.7006 37.7497C31.6281 37.7497 31.5803 37.7401 30.8812 37.4049C28.6022 36.3133 27.7404 33.6513 28.9469 31.4489C29.4066 30.5966 30.278 29.8401 31.2068 29.4954C31.4749 29.3901 32.1069 29.3231 33.2464 29.2847C34.7785 29.2273 34.9126 29.2081 35.1041 29.0166C35.3627 28.7581 35.3818 28.2984 35.1424 28.0303C34.9892 27.858 34.8456 27.8388 33.7156 27.8388C31.7239 27.8292 31.3121 27.6856 30.8908 26.8525C30.5844 26.2397 30.6706 25.6747 31.1302 25.1576C31.7526 24.4682 32.6049 24.4203 33.3613 25.014C33.8401 25.397 34.2327 25.4449 34.52 25.1576C34.836 24.8416 34.769 24.3916 34.3572 23.9894C33.6007 23.2521 32.3559 22.9744 31.3887 23.3191Z" fill="#990000"/>
</svg>
