<svg width="28" height="28" viewBox="0 0 28 28" fill="none" xmlns="http://www.w3.org/2000/svg">
<rect width="28" height="28" rx="14" fill="#F0F2F5"/>
<path d="M17.7896 8.82584C17.648 8.8988 17.5708 8.97605 17.5021 9.11767L17.4034 9.30651V12.6584V16.006L14.0472 12.6541C12.1975 10.8086 10.6438 9.27647 10.5923 9.25072C10.4421 9.17347 10.1546 9.19493 9.97862 9.29364C9.69537 9.45672 9.54516 9.89019 9.68249 10.1606C9.70824 10.2121 11.2404 11.7657 13.0859 13.6112L16.4377 16.9716H13.0902H9.73829L9.54945 17.0703C9.40782 17.139 9.33057 17.2162 9.25761 17.3579C9.09023 17.684 9.17177 18.0059 9.48078 18.2334C9.59666 18.3235 9.63099 18.3235 13.9356 18.3364L18.2703 18.345L18.4334 18.2548C18.5235 18.2033 18.6351 18.0918 18.6866 18.0016L18.7767 17.8385L18.7682 13.5039C18.7553 9.19922 18.7553 9.16488 18.6652 9.04901C18.4377 8.74 18.1158 8.65846 17.7896 8.82584Z" fill="#990000"/>
</svg>
