<svg width="21" height="21" viewBox="0 0 21 21" fill="none" xmlns="http://www.w3.org/2000/svg">
<path d="M4.14559 0.306454C4.03999 0.341654 3.50026 0.646719 2.95271 0.979164C1.83022 1.65969 1.58773 1.86698 1.33351 2.34414C1.05191 2.88387 0.883736 3.86947 0.930669 4.73382C1.09494 7.77274 3.25777 11.3358 7.25101 15.153C10.2978 18.0628 13.1216 19.7485 15.6403 20.1631C16.8058 20.3548 18.1121 20.2257 18.8357 19.8463C19.3128 19.596 19.5201 19.3496 20.2007 18.2271C20.5331 17.6796 20.8343 17.1398 20.8734 17.0342C20.9555 16.7917 20.9594 16.5805 20.8851 16.3263C20.7678 15.9274 20.7287 15.8961 18.4837 14.3981C17.3299 13.6277 16.3052 12.955 16.2113 12.908C15.9962 12.7985 15.6442 12.7633 15.4096 12.8298C15.0615 12.9276 14.9285 13.0527 14.2323 13.9484C13.8647 14.4177 13.5322 14.8323 13.4931 14.8636C13.4501 14.8988 13.3406 14.9222 13.2037 14.9222C13.0042 14.9222 12.9417 14.8949 12.5153 14.6524C11.4241 14.0305 10.6458 13.4126 9.39038 12.1727C7.92763 10.7295 7.2119 9.85345 6.56265 8.71532C6.23803 8.14821 6.18719 7.96048 6.29279 7.7571C6.32799 7.68279 6.69172 7.37381 7.21972 6.96315C8.12318 6.25915 8.25225 6.12617 8.35003 5.77026C8.41651 5.53559 8.38131 5.1836 8.2718 4.96849C8.22487 4.87462 7.55216 3.84991 6.78167 2.69614C5.28372 0.451164 5.25243 0.412054 4.8535 0.294722C4.59928 0.220409 4.38808 0.224321 4.14559 0.306454ZM4.73617 0.96743C4.86132 1.03001 5.06861 1.31943 6.23803 3.0716C6.98505 4.19018 7.62647 5.16404 7.66558 5.23835C7.74772 5.40262 7.72816 5.62555 7.61474 5.77026C7.57172 5.82111 7.20407 6.12617 6.80123 6.43906C5.92905 7.11568 5.83519 7.20172 5.6983 7.43248C5.60443 7.58892 5.5927 7.64759 5.5927 7.98003V8.35159L5.86257 8.84048C6.57439 10.1194 7.29012 11.0229 8.72158 12.4582C10.153 13.8897 11.0604 14.6054 12.3315 15.3133C12.7774 15.5597 12.8361 15.5793 13.0981 15.5989C13.4501 15.6223 13.7082 15.5441 13.9312 15.3564C14.0133 15.2821 14.3731 14.8518 14.7212 14.3981C15.3705 13.5651 15.4878 13.4556 15.7224 13.4556C15.7772 13.4556 15.875 13.483 15.9376 13.5142C15.9962 13.5455 16.9701 14.1869 18.0965 14.9418C20.3023 16.4241 20.3141 16.4319 20.2671 16.7292C20.2319 16.9325 19.1251 18.7434 18.8904 18.9741C18.5111 19.3535 17.9244 19.5373 16.974 19.5804C14.8698 19.6781 12.2572 18.5244 9.54291 16.2989C8.4478 15.3994 6.91856 13.9445 5.94861 12.8689C3.34773 9.99816 1.94364 7.50288 1.63858 5.19142C1.52125 4.32315 1.63467 3.2476 1.8928 2.7196C2.08053 2.33632 2.3504 2.11729 3.38293 1.49934C3.88746 1.19818 4.32941 0.940052 4.3607 0.92832C4.47021 0.889208 4.59146 0.900942 4.73617 0.96743Z" fill="white"/>
<path d="M12.1828 2.92298C11.9481 3.00903 11.866 3.31409 12.0381 3.47445C12.1163 3.54876 12.2023 3.56832 12.6208 3.5996C13.2114 3.64263 13.6064 3.72085 14.0797 3.8812C15.6637 4.42094 16.9465 5.64511 17.5449 7.18999C17.76 7.75319 17.9282 8.55888 17.9321 9.05559C17.9321 9.32546 17.9908 9.45843 18.1316 9.54057C18.2528 9.60705 18.4092 9.57577 18.5188 9.45843C18.5813 9.38803 18.597 9.32154 18.597 9.08297C18.597 8.48457 18.421 7.60066 18.1707 6.95533C17.3493 4.83942 15.3703 3.27498 13.141 2.97774C12.7303 2.9269 12.2571 2.89952 12.1828 2.92298Z" fill="white"/>
<path d="M12.0382 5.01538C11.917 5.14444 11.917 5.35564 12.0421 5.47298C12.1203 5.54729 12.2025 5.56684 12.5349 5.59422C13.0473 5.64115 13.4462 5.75066 13.8842 5.96577C14.5765 6.30604 15.1593 6.88097 15.5152 7.57324C15.7733 8.06995 15.9376 8.69572 15.9376 9.16505C15.9376 9.3215 15.9571 9.37625 16.051 9.47012C16.2035 9.61874 16.3404 9.61874 16.4929 9.4623C16.6142 9.34496 16.6142 9.34496 16.5907 9.0047C16.5203 7.9487 16.0862 6.96702 15.3548 6.22391C14.5882 5.44169 13.6222 4.99582 12.574 4.94107C12.136 4.92151 12.1242 4.92151 12.0382 5.01538Z" fill="white"/>
<path d="M12.0463 7.02179C11.8585 7.20561 11.9563 7.51459 12.2105 7.56543C12.2692 7.57716 12.4139 7.59672 12.5273 7.61236C12.8324 7.64756 13.2274 7.86267 13.4699 8.1169C13.7202 8.38285 13.8493 8.65272 13.904 9.036C13.9549 9.38409 13.9979 9.48187 14.127 9.54054C14.2678 9.60311 14.3577 9.59138 14.4711 9.4936C14.6041 9.38018 14.6315 9.17289 14.5533 8.80916C14.3655 7.91352 13.7202 7.22125 12.8637 7.00223C12.4335 6.89272 12.1675 6.89663 12.0463 7.02179Z" fill="white"/>
</svg>
