<svg width="13" height="13" viewBox="0 0 13 13" fill="none" xmlns="http://www.w3.org/2000/svg">
<path d="M5.87777 0.027853C3.84652 0.238595 2.06664 1.34309 0.985 3.06457C-0.251523 5.02981 -0.325156 7.57649 0.794571 9.61028C1.09164 10.1511 1.43695 10.6132 1.88637 11.0652C2.42211 11.6085 2.95531 11.9919 3.6434 12.3296C4.30356 12.6521 4.93578 12.845 5.70004 12.9542C6.00219 12.9974 7.00004 12.9948 7.31234 12.9517C8.8891 12.7333 10.2297 12.0351 11.3012 10.8747C12.1899 9.90988 12.7561 8.68606 12.9541 7.29973C12.9973 7.00012 12.9973 5.99973 12.9541 5.70012C12.7434 4.21985 12.1391 2.9757 11.1387 1.95754C10.1129 0.913985 8.85609 0.276681 7.40121 0.0608606C7.08891 0.0151577 6.18754 -0.00515461 5.87777 0.027853ZM7.02289 0.992697C7.6932 1.05617 8.30512 1.23137 8.92465 1.53352C9.52133 1.82805 9.97328 2.15051 10.4354 2.6177C12.2737 4.47121 12.5555 7.40383 11.1006 9.56965C10.5344 10.4126 9.84633 11.0144 8.92973 11.4638C7.37836 12.228 5.58578 12.223 4.03188 11.4486C3.15082 11.0118 2.43734 10.3821 1.89145 9.55949C1.4598 8.90949 1.18051 8.20617 1.03832 7.40129C0.987539 7.12199 0.979922 6.98488 0.979922 6.49992C0.979922 6.01496 0.987539 5.87785 1.03832 5.59856C1.28461 4.21223 1.98031 3.02902 3.04418 2.17844C4.16137 1.28469 5.60609 0.853048 7.02289 0.992697Z" fill="white"/>
<path d="M6.30933 2.26974C6.2103 2.31545 6.1062 2.42717 6.05796 2.54396C6.02241 2.62775 6.01733 2.88674 6.01733 4.6133C6.01733 5.93869 6.02749 6.6217 6.04526 6.69025C6.06812 6.77658 6.22046 6.93908 7.05581 7.77189C7.59663 8.31271 8.07651 8.77482 8.12476 8.80021C8.33804 8.91193 8.63765 8.82053 8.75698 8.60724C8.82808 8.47775 8.83823 8.27717 8.7773 8.16291C8.75444 8.11974 8.34312 7.69318 7.86069 7.21076L6.98218 6.33478V4.48127C6.98218 2.73185 6.97964 2.62267 6.93394 2.52619C6.87808 2.40685 6.77144 2.30021 6.66987 2.26213C6.57339 2.22404 6.40073 2.22912 6.30933 2.26974Z" fill="white"/>
</svg>
