<svg width="27" height="30" viewBox="0 0 27 30" fill="none" xmlns="http://www.w3.org/2000/svg">
<path d="M10.9121 24.5388H16.8484C16.916 24.5396 16.983 24.5263 17.0451 24.4997C17.1073 24.4731 17.1631 24.4337 17.2091 24.3842C17.3053 24.2885 17.3607 24.1592 17.3637 24.0235V22.694C17.3637 21.952 18.281 20.8389 18.9509 20.0248C19.6326 19.2243 20.2527 18.3733 20.806 17.4791C21.6142 16.1767 22.0392 14.6731 22.0324 13.1403C22.0324 8.61591 18.3737 4.92633 13.8803 4.92633C9.38682 4.92633 5.72816 8.61591 5.72816 13.1403C5.72816 13.9132 5.83121 14.6656 6.03734 15.3973C6.24346 16.1187 6.55264 16.8196 6.95458 17.4791C7.37713 18.149 7.8409 18.8189 8.37682 19.4991C8.5108 19.664 8.65508 19.8392 8.80968 20.0351C9.47957 20.8492 10.3865 21.9623 10.3865 22.694V24.0235C10.3865 24.1575 10.438 24.2915 10.5411 24.3842C10.6442 24.477 10.7781 24.5388 10.9121 24.5388ZM16.3331 23.5082H11.4274V22.694C11.4274 21.5913 10.4586 20.4164 9.61355 19.3755L9.191 18.8602C8.6757 18.2006 8.23253 17.5719 7.8306 16.9329C7.48019 16.3661 7.21223 15.7477 7.02672 15.1191C6.84121 14.4801 6.74846 13.8102 6.74846 13.1403C6.74846 9.18275 9.94335 5.95694 13.87 5.95694C17.7966 5.95694 20.9915 9.18275 20.9915 13.1403C20.9915 13.8102 20.8987 14.4801 20.7132 15.1191C20.538 15.758 20.2597 16.3661 19.9093 16.9432C19.5177 17.5822 19.0745 18.2109 18.5489 18.8705C18.4253 19.0354 18.281 19.2003 18.1367 19.3858C17.2813 20.4267 16.3228 21.6016 16.3228 22.7043L16.3331 23.5082Z" fill="white"/>
<path d="M8.53148 14.6759H8.59332C8.72817 14.6598 8.85131 14.5914 8.93615 14.4853C9.02099 14.3793 9.06072 14.2441 9.04679 14.109C8.71699 11.1306 10.6236 8.99722 12.0768 8.65712C12.143 8.64263 12.2056 8.61495 12.2609 8.57573C12.3162 8.53652 12.3631 8.48657 12.3987 8.42886C12.4343 8.37115 12.4579 8.30687 12.4681 8.23985C12.4783 8.17283 12.4749 8.10444 12.4581 8.03875C12.4436 7.97252 12.4159 7.90989 12.3767 7.85459C12.3375 7.79929 12.2875 7.75245 12.2298 7.71686C12.1721 7.68127 12.1079 7.65767 12.0408 7.64746C11.9738 7.63725 11.9054 7.64064 11.8397 7.65743C9.97433 8.09028 7.61424 10.6153 8.01618 14.2224C8.0471 14.4801 8.27383 14.6759 8.53148 14.6759ZM13.8803 3.20519C14.1689 3.20519 14.3956 2.97846 14.3956 2.68989V0.515305C14.3956 0.226734 14.1689 0 13.8803 0C13.5918 0 13.365 0.226734 13.365 0.515305V2.68989C13.365 2.97846 13.5918 3.20519 13.8803 3.20519ZM1.27599 13.635H3.45058C3.73915 13.635 3.96588 13.4082 3.96588 13.1197C3.96588 12.8311 3.73915 12.6044 3.45058 12.6044H1.27599C0.987421 12.6044 0.760687 12.8311 0.760687 13.1197C0.760687 13.4082 0.997728 13.635 1.27599 13.635ZM24.3101 13.635H26.4847C26.7733 13.635 27 13.4082 27 13.1197C27 12.8311 26.7733 12.6044 26.4847 12.6044H24.3101C24.0215 12.6044 23.7948 12.8311 23.7948 13.1197C23.7948 13.4082 24.0215 13.635 24.3101 13.635ZM4.96557 22.5497C5.03316 22.5506 5.10016 22.5372 5.16229 22.5106C5.22441 22.484 5.28027 22.4446 5.32629 22.3951L6.86189 20.8595C7.06802 20.6534 7.06802 20.3339 6.86189 20.1278C6.65577 19.9217 6.33628 19.9217 6.13016 20.1278L4.59455 21.6634C4.38843 21.8695 4.38843 22.189 4.59455 22.3951C4.70792 22.4982 4.8419 22.5497 4.96557 22.5497ZM21.2492 6.2661C21.3168 6.26693 21.3838 6.2536 21.4459 6.22698C21.508 6.20035 21.5639 6.16102 21.6099 6.11151L23.1558 4.57591C23.3619 4.36978 23.3619 4.05029 23.1558 3.84417C22.9497 3.63805 22.6302 3.63805 22.4241 3.84417L20.8885 5.37978C20.6824 5.5859 20.6824 5.90539 20.8885 6.11151C20.9915 6.21457 21.1255 6.2661 21.2492 6.2661ZM22.7951 22.5497C22.8627 22.5506 22.9297 22.5372 22.9918 22.5106C23.054 22.484 23.1098 22.4446 23.1558 22.3951C23.3619 22.189 23.3619 21.8695 23.1558 21.6634L21.6202 20.1278C21.4141 19.9217 21.0946 19.9217 20.8885 20.1278C20.6824 20.3339 20.6824 20.6534 20.8885 20.8595L22.4241 22.3951C22.5272 22.4982 22.6611 22.5497 22.7951 22.5497ZM6.51149 6.2661C6.57907 6.26693 6.64608 6.2536 6.7082 6.22698C6.77032 6.20035 6.82619 6.16102 6.8722 6.11151C7.07832 5.90539 7.07832 5.5859 6.8722 5.37978L5.33659 3.84417C5.13047 3.63805 4.81098 3.63805 4.60486 3.84417C4.39874 4.05029 4.39874 4.36978 4.60486 4.57591L6.14047 6.11151C6.24353 6.21457 6.37751 6.2661 6.51149 6.2661ZM11.3244 26.3218H16.4466C17.2195 26.3218 17.8585 25.6931 17.8585 24.9098C17.8585 24.1266 17.2298 23.4979 16.4466 23.4979H11.3244C10.5515 23.4979 9.9125 24.1266 9.9125 24.9098C9.9125 25.6931 10.5412 26.3218 11.3244 26.3218ZM16.4363 24.5388C16.6424 24.5388 16.8176 24.714 16.8176 24.9201C16.8176 25.1263 16.6424 25.3015 16.4363 25.3015H11.3141C11.108 25.3015 10.9328 25.1263 10.9328 24.9201C10.9328 24.714 11.108 24.5388 11.3141 24.5388H16.4363ZM13.8494 29.8877C14.9831 29.8877 15.9003 28.9498 16.0962 27.6719L16.1889 27.0741H11.5718L11.6645 27.6719C11.8707 28.9498 12.7879 29.8877 13.8494 29.8877ZM14.8903 28.1047C14.6739 28.5582 14.3029 28.8571 13.9113 28.8571C13.4681 28.8571 13.0868 28.5582 12.8703 28.1047H14.8903Z" fill="white"/>
<path d="M11.7368 28.1047H16.0138C16.7868 28.1047 17.4258 27.476 17.4258 26.6928C17.4258 25.9095 16.7971 25.2808 16.0138 25.2808H11.7368C10.9639 25.2808 10.3249 25.9095 10.3249 26.6928C10.3249 27.476 10.9639 28.1047 11.7368 28.1047ZM16.0242 26.3217C16.2303 26.3217 16.4055 26.4969 16.4055 26.7031C16.4055 26.9092 16.2303 27.0844 16.0242 27.0844H11.7471C11.541 27.0844 11.3658 26.9092 11.3658 26.7031C11.3658 26.4969 11.541 26.3217 11.7471 26.3217H16.0242Z" fill="white"/>
</svg>
