<svg width="53" height="56" viewBox="0 0 53 56" fill="none" xmlns="http://www.w3.org/2000/svg">
<path d="M21.7608 0.163536C21.5886 0.289776 21.3935 1.13902 20.8197 4.09991C20.4181 6.17711 20.0623 7.93299 20.0393 8.00185C20.0049 8.08218 19.7065 8.23137 19.3737 8.33466C17.6178 8.90847 14.8176 10.4922 13.2339 11.812C12.8437 12.1448 12.442 12.4087 12.3502 12.4087C12.2584 12.4087 10.6173 11.8694 8.71224 11.2037C6.7957 10.5381 5.08573 9.99872 4.92506 9.99872C4.76439 9.99872 4.54634 10.0905 4.45453 10.1938C4.25944 10.4119 0.460782 16.9763 0.21978 17.4927C0.105017 17.7337 0.116493 17.837 0.265685 18.0551C0.357495 18.2043 1.73465 19.4322 3.31838 20.7864C5.90055 23.0014 6.18745 23.2883 6.13007 23.5407C5.64807 25.7327 5.64807 29.6117 6.13007 31.8037C6.18745 32.0562 5.90055 32.3431 3.31838 34.558C1.73465 35.9122 0.357495 37.1402 0.265685 37.2893C0.116493 37.5074 0.105017 37.6107 0.21978 37.8517C0.460782 38.3681 4.25944 44.9326 4.45453 45.1391C4.68406 45.4146 5.0972 45.4031 5.9235 45.1047C6.29074 44.9785 7.92037 44.4161 9.53853 43.8538L12.4879 42.8439L12.8437 43.2111L13.1995 43.5784L12.947 44.4965C12.7175 45.3572 12.706 45.6441 12.6945 50.1198C12.683 54.6185 12.6945 54.8596 12.9011 55.0891L13.1191 55.3301H26.2824H39.4458L39.6638 55.0891C39.8704 54.8596 39.8819 54.6185 39.8704 50.1198C39.8589 45.6441 39.8474 45.3572 39.6179 44.4965L39.3654 43.5784L39.6753 43.257C39.8474 43.0849 40.077 42.9357 40.1802 42.9357C40.295 42.9357 41.9476 43.4751 43.8641 44.1407C45.7921 44.8063 47.4906 45.3457 47.6513 45.3457C47.812 45.3457 48.0185 45.2539 48.1104 45.1391C48.294 44.9326 52.1156 38.3452 52.3451 37.8402C52.4599 37.6107 52.4484 37.4959 52.2992 37.2893C52.2074 37.1402 50.8302 35.9122 49.2465 34.558C46.6643 32.3431 46.3774 32.0562 46.4348 31.8037C46.9168 29.5888 46.9168 25.7327 46.4348 23.5407C46.3774 23.2883 46.6643 23.0014 49.2465 20.7864C50.8302 19.4322 52.2074 18.2043 52.2992 18.0551C52.4484 17.837 52.4599 17.7337 52.3451 17.4927C52.1041 16.9763 48.3055 10.4119 48.1104 10.1938C48.0185 10.0905 47.8005 9.99872 47.6398 9.99872C47.4792 9.99872 45.7233 10.5611 43.7379 11.2496L40.1229 12.4891L39.3769 11.8579C37.8276 10.5496 35.1307 9.00028 33.1797 8.32318C32.8469 8.20842 32.5485 8.05923 32.5255 7.99037C32.5026 7.93299 32.1468 6.17711 31.7452 4.09991C31.1713 1.1505 30.9648 0.278301 30.8041 0.163536C30.5057 -0.054512 22.0592 -0.054512 21.7608 0.163536ZM30.5401 5.14425C31.0222 7.5887 31.332 8.96585 31.4583 9.09209C31.5501 9.1839 32.1124 9.43638 32.7092 9.64296C34.7749 10.366 37.2423 11.7775 38.6998 13.0973C39.8245 14.0958 39.6753 14.0843 41.9246 13.3268C43.0149 12.9596 44.6675 12.3973 45.6085 12.0759C46.5496 11.7546 47.33 11.5021 47.3414 11.5136C47.3529 11.5365 48.1448 12.9137 49.1088 14.5663C50.5892 17.1255 50.8302 17.619 50.681 17.7223C49.6252 18.56 44.9888 22.6915 44.9659 22.8407C44.9429 22.944 44.9659 23.2079 45.0118 23.426C45.2298 24.4015 45.4479 26.5246 45.4479 27.6722C45.4479 28.8198 45.2298 30.943 45.0118 31.9184C44.9659 32.1365 44.9429 32.4004 44.9659 32.5037C44.9888 32.6529 49.6252 36.7844 50.681 37.6222C50.8302 37.7254 50.5892 38.2189 49.1088 40.7781C48.1448 42.4307 47.3529 43.8079 47.3414 43.8308C47.3185 43.8538 45.7233 43.3144 43.7723 42.6488C41.8213 41.9717 40.1114 41.4208 39.9737 41.4208C39.8245 41.4208 39.4917 41.593 39.2162 41.8225L38.7113 42.2356L38.2063 41.5356C37.4718 40.5142 36.3012 39.5043 35.2684 38.9764C35.2569 38.9764 35.8307 38.3681 36.5308 37.6451C39.4572 34.6154 40.777 31.1725 40.5934 26.9836C40.4327 23.4145 39.1244 20.3733 36.6226 17.7567C34.6372 15.691 32.4223 14.4286 29.5073 13.6941C28.4285 13.4301 28.0727 13.3957 26.2824 13.3957C24.4807 13.3957 24.1479 13.4301 23.0347 13.7056C20.0738 14.44 17.8933 15.7139 15.8161 17.9174C11.8682 22.0833 10.8354 28.0854 13.1421 33.4448C13.7962 34.9826 14.657 36.222 16.0341 37.6451C16.7342 38.3681 17.308 38.9764 17.2965 38.9764C16.2407 39.5157 15.116 40.4912 14.3471 41.5356L13.8536 42.2356L13.3487 41.8225C13.0732 41.593 12.7404 41.4208 12.5912 41.4208C12.4535 41.4208 10.7435 41.9717 8.79257 42.6488C6.85308 43.3144 5.2464 43.8538 5.23492 43.8308C5.21197 43.8079 4.4201 42.4307 3.45609 40.7781C1.97565 38.2189 1.73465 37.7254 1.88384 37.6222C2.93966 36.7844 7.57608 32.6529 7.59904 32.5037C7.62199 32.4004 7.59904 32.1135 7.54166 31.8611C6.99079 29.3018 6.99079 26.0426 7.54166 23.4834C7.59904 23.2309 7.62199 22.944 7.61051 22.8407C7.57608 22.6915 2.30847 18.0092 1.81498 17.6764C1.73465 17.6305 4.8103 12.0874 5.23492 11.5136C5.2464 11.4906 6.89898 12.0415 8.90733 12.7301C11.0993 13.4875 12.6486 13.958 12.7634 13.9121C12.8781 13.8777 13.3372 13.5219 13.7962 13.1432C15.6324 11.6054 17.767 10.3774 19.8557 9.64296C20.4525 9.43638 21.0148 9.1839 21.1066 9.09209C21.2329 8.96585 21.5427 7.5887 22.0247 5.14425L22.7477 1.3915H26.2824H29.8171L30.5401 5.14425ZM28.0727 14.8302C29.9204 15.0827 31.8944 15.8402 33.5125 16.9074C34.465 17.5272 35.9914 18.9961 36.7144 19.9716C40.0884 24.5162 40.0884 30.8511 36.7259 35.3613C36.1521 36.1188 34.7979 37.5074 34.1093 38.0238C33.7191 38.3107 33.7191 38.3107 33.019 38.1271C31.9632 37.8517 20.6017 37.8517 19.5459 38.1271L18.8343 38.3107L18.2261 37.8287C17.2276 37.0369 15.8161 35.4531 15.1734 34.3744C14.0143 32.4234 13.4405 30.5298 13.3487 28.2919C13.2683 26.5131 13.4175 25.3081 13.911 23.7703C15.8161 17.7682 21.8411 13.958 28.0727 14.8302ZM28.0039 39.3092C28.0039 39.3321 27.8317 39.7567 27.6252 40.2617L27.235 41.1569H26.2824H25.3299L24.9397 40.2617C24.7331 39.7567 24.561 39.3321 24.561 39.3092C24.561 39.2862 25.3414 39.2633 26.2824 39.2633C27.235 39.2633 28.0039 39.2862 28.0039 39.3092ZM23.6429 40.7322L24.2052 42.0291L23.7806 46.4474L23.3675 50.8543L23.9642 52.3118C24.297 53.1266 24.561 53.8267 24.561 53.8726C24.561 53.9185 23.5511 53.9529 22.3231 53.9529H20.0852V49.9706C20.0852 45.5982 20.0852 45.5752 19.3852 45.5752C18.7196 45.5752 18.7081 45.69 18.7081 50.0166V53.9529H16.344H13.9799L14.0372 49.7411C14.0946 45.0473 14.1176 44.8407 14.8865 43.28C15.4718 42.0979 16.826 40.7552 18.0195 40.1584C19.3049 39.5157 19.9131 39.3895 21.6116 39.4125L23.0806 39.4354L23.6429 40.7322ZM32.9961 39.5502C35.5209 40.2043 37.5866 42.2701 38.2866 44.8293C38.4473 45.3916 38.4932 46.2982 38.5276 49.7411L38.585 53.9529H36.2209H33.8568V50.0166C33.8568 46.6425 33.8338 46.0458 33.6732 45.8277C33.4666 45.5293 32.9846 45.4949 32.6862 45.7703C32.4911 45.9425 32.4796 46.2294 32.4796 49.9592V53.9529H30.2418C29.0138 53.9529 28.0039 53.907 28.0039 53.8611C28.0039 53.8152 28.2678 53.1496 28.5777 52.3807C28.899 51.6118 29.1515 50.8199 29.1515 50.6018C29.1515 50.3953 28.9679 48.3869 28.7498 46.1376L28.3482 42.052L28.8187 40.9732C29.0827 40.3765 29.3351 39.7797 29.3925 39.6305C29.4843 39.3895 29.5417 39.378 30.9074 39.378C31.8025 39.378 32.56 39.4469 32.9961 39.5502ZM27.4186 46.631L27.7973 50.6248L27.1317 52.2889C26.6726 53.4021 26.3972 53.9529 26.2824 53.9529C26.1677 53.9529 25.8923 53.4135 25.4332 52.2889L24.7676 50.6248L25.1233 46.7458C25.3299 44.6227 25.5135 42.8094 25.548 42.7291C25.5824 42.6258 25.8004 42.5914 26.3054 42.6143L27.0284 42.6488L27.4186 46.631Z" fill="#990000"/>
<path d="M25.4215 22.1636C22.9885 22.4505 20.7277 24.0112 19.6604 26.1458C18.2374 28.9805 18.662 32.2512 20.7392 34.5465C22.3459 36.3253 24.8821 37.2893 27.1544 36.968C30.976 36.4401 33.7418 33.33 33.7418 29.5658C33.7418 25.1244 29.8399 21.6471 25.4215 22.1636ZM27.7168 23.6784C28.6923 23.885 29.7251 24.4588 30.5399 25.2622C33.3172 27.9935 32.8696 32.4807 29.5989 34.6612C27.6823 35.9466 24.951 35.9581 23 34.6957C19.867 32.6644 19.2587 28.2804 21.7376 25.5261C23.2525 23.8506 25.3871 23.1849 27.7168 23.6784Z" fill="#990000"/>
</svg>
