<svg width="62" height="101" viewBox="0 0 62 101" fill="none" xmlns="http://www.w3.org/2000/svg">
<g opacity="0.5">
<circle cx="1.7839" cy="1.71017" r="1.71017" fill="#4374BE"/>
<circle cx="21.2859" cy="1.71017" r="1.71017" fill="#4374BE"/>
<circle cx="40.7878" cy="1.71017" r="1.71017" fill="#4374BE"/>
<circle cx="60.2898" cy="1.71017" r="1.71017" fill="#4374BE"/>
<circle cx="1.7839" cy="21.2121" r="1.71017" fill="#4374BE"/>
<circle cx="21.2859" cy="21.2121" r="1.71017" fill="#4374BE"/>
<circle cx="40.7878" cy="21.2121" r="1.71017" fill="#4374BE"/>
<circle cx="60.2898" cy="21.2121" r="1.71017" fill="#4374BE"/>
<circle cx="1.7839" cy="40.7141" r="1.71017" fill="#4374BE"/>
<circle cx="21.2859" cy="40.7141" r="1.71017" fill="#4374BE"/>
<circle cx="40.7878" cy="40.7141" r="1.71017" fill="#4374BE"/>
<circle cx="60.2898" cy="40.7141" r="1.71017" fill="#4374BE"/>
<circle cx="1.7839" cy="60.216" r="1.71017" fill="#4374BE"/>
<circle cx="21.2859" cy="60.216" r="1.71017" fill="#4374BE"/>
<circle cx="40.7878" cy="60.216" r="1.71017" fill="#4374BE"/>
<circle cx="60.2898" cy="60.216" r="1.71017" fill="#4374BE"/>
<circle cx="1.7839" cy="79.7182" r="1.71017" fill="#4374BE"/>
<circle cx="21.2859" cy="79.7182" r="1.71017" fill="#4374BE"/>
<circle cx="40.7878" cy="79.7182" r="1.71017" fill="#4374BE"/>
<circle cx="60.2898" cy="79.7182" r="1.71017" fill="#4374BE"/>
<circle cx="1.7839" cy="99.2199" r="1.71017" fill="#4374BE"/>
<circle cx="21.2859" cy="99.2199" r="1.71017" fill="#4374BE"/>
<circle cx="40.7878" cy="99.2199" r="1.71017" fill="#4374BE"/>
<circle cx="60.2898" cy="99.2199" r="1.71017" fill="#4374BE"/>
</g>
</svg>
