<svg width="25" height="25" viewBox="0 0 25 25" fill="none" xmlns="http://www.w3.org/2000/svg">
<path d="M12.4119 0.909426C11.5667 1.07281 11.1554 1.73764 10.8568 3.43914C10.3441 6.36887 9.76383 7.91825 8.66518 9.32114C8.17501 9.94653 7.05382 11.0114 6.97494 10.9269C6.96368 10.9156 6.9017 10.8029 6.83973 10.6733C6.77775 10.5494 6.62 10.3522 6.49041 10.2339C6.03405 9.82258 6.10729 9.83385 3.56068 9.83385C1.35211 9.83385 1.2676 9.83948 1.0197 9.95216C0.692918 10.1043 0.399945 10.3973 0.230922 10.7409L0.0957031 11.017V17.0455V23.074L0.253458 23.3951C0.422481 23.7388 0.614041 23.9304 0.991526 24.1332C1.21689 24.2572 1.26196 24.2572 3.53251 24.2572C5.76925 24.2572 5.84812 24.2515 6.10166 24.1388C6.4228 23.9867 6.72704 23.6881 6.86226 23.3895C6.9186 23.2599 6.98058 23.1585 6.99748 23.1585C7.02002 23.1585 7.30172 23.2825 7.62287 23.4346C8.82293 23.998 10.4906 24.4825 11.8259 24.6515C12.4457 24.7304 13.1612 24.7417 16.9135 24.7248C21.787 24.7079 21.4602 24.7304 22.0856 24.3022C22.6547 23.9135 23.0547 23.1416 23.0547 22.4261C23.0547 22.0937 22.8744 21.3894 22.773 21.3274C22.6603 21.2598 22.7223 21.1978 23.0716 21.0288C23.7308 20.702 24.2322 20.0259 24.3505 19.3048C24.4519 18.685 24.2322 17.9413 23.8153 17.4793L23.6068 17.2483L23.804 17.0061C24.5534 16.0933 24.559 14.8031 23.8153 13.9862L23.6068 13.7495L23.8096 13.5129C24.9646 12.1664 24.2322 10.0761 22.4969 9.74934C22.311 9.71553 20.8348 9.69299 18.739 9.69299C16.0064 9.69299 15.2796 9.67609 15.2796 9.61975C15.2796 9.58595 15.4543 8.89295 15.6684 8.08727C16.1867 6.12661 16.2036 6.05336 16.198 5.24205C16.1923 4.68427 16.1642 4.42511 16.0515 3.99128C15.7867 2.97714 15.2064 2.03625 14.5303 1.52918C13.8936 1.05028 13.026 0.791109 12.4119 0.909426ZM13.3471 2.15456C14.2598 2.49261 14.9247 3.55182 15.0768 4.93218C15.1444 5.48995 15.0261 6.13224 14.4852 8.14362C14.2035 9.19719 13.9725 10.155 13.9669 10.2677C13.9612 10.4311 13.995 10.5156 14.1134 10.6339L14.2655 10.7916L18.3389 10.8198L22.4068 10.848L22.6716 11.0057C23.4434 11.4565 23.4378 12.5833 22.6603 13.0171C22.4124 13.1523 22.3786 13.158 20.925 13.1861L19.4376 13.2143L19.3024 13.3721C19.1559 13.5411 19.1221 13.8397 19.2235 14.0313C19.3474 14.2623 19.477 14.2848 21.0095 14.313L22.48 14.3411L22.7279 14.5102C23.3477 14.9496 23.4265 15.7835 22.8969 16.3018C22.5532 16.6398 22.3335 16.6793 20.8179 16.6793H19.4939L19.3305 16.8427C19.1052 17.068 19.1052 17.3441 19.3305 17.592L19.4939 17.7779L20.9813 17.8061C22.6321 17.8399 22.6659 17.8455 22.9927 18.2399C23.4547 18.8033 23.2462 19.7048 22.5814 20.009C22.3786 20.0992 22.1927 20.1161 21.0095 20.1161C19.9108 20.1161 19.6291 20.133 19.477 20.2006C19.1333 20.3696 19.0601 20.8034 19.3305 21.0795C19.4939 21.2429 19.5052 21.2429 20.1531 21.2429C20.9306 21.2429 21.2236 21.3049 21.5053 21.5415C22.2039 22.1162 21.9673 23.2994 21.0996 23.5529C20.9475 23.598 19.5897 23.6092 16.4064 23.5923C11.5498 23.5698 11.8203 23.5867 10.4399 23.2374C9.30746 22.9557 7.97218 22.4204 7.26792 21.9641L6.99748 21.7951V17.0793V12.3636L7.61723 11.8959C8.89054 10.9494 9.83144 9.83948 10.5132 8.50983C11.1554 7.25343 11.5329 6.01392 11.8935 4.00255C12.164 2.50388 12.2992 2.13766 12.6316 2.01371C12.7443 1.97427 12.9865 2.01934 13.3471 2.15456ZM5.72417 11.0508L5.87066 11.1635V17.0455V22.9275L5.72417 23.0402C5.57769 23.1529 5.51008 23.1585 3.55504 23.1585H1.53803L1.38028 23.0233L1.22252 22.8881V17.0455V11.2029L1.38028 11.0677L1.53803 10.9325H3.55504C5.51008 10.9325 5.57769 10.9381 5.72417 11.0508Z" fill="white"/>
</svg>
