<svg width="37" height="29" viewBox="0 0 37 29" fill="none" xmlns="http://www.w3.org/2000/svg">
<path d="M0.194933 1.12647L0 1.3136V14.0077C0.00779734 23.8635 0.023392 26.7329 0.101365 26.8265C0.335285 27.1306 0.319691 27.1306 7.73496 27.1306H14.9319L15.0333 27.536C15.197 28.2222 15.6726 28.7446 16.3042 28.924C16.6473 29.0253 19.5323 29.0253 19.8754 28.924C20.507 28.7446 20.9826 28.2222 21.1464 27.536L21.2477 27.1306H28.4447C35.86 27.1306 35.8444 27.1306 36.0783 26.8265C36.1562 26.7329 36.1718 23.8635 36.1796 14.0077V1.3136L35.9847 1.12647L35.7976 0.931536H27.9535C20.2185 0.931536 20.1093 0.931536 19.6337 1.09528C19.0957 1.27462 18.815 1.44616 18.3861 1.85942L18.0898 2.13233L17.8013 1.85942C17.3647 1.44616 17.084 1.27462 16.5459 1.09528C16.0703 0.931536 15.9611 0.931536 8.22619 0.931536H0.382069L0.194933 1.12647ZM16.3432 2.32726C16.5148 2.40523 16.7877 2.60017 16.9436 2.76391C17.4972 3.33311 17.466 2.63915 17.466 13.8751V23.9805L16.9046 23.7076L16.3432 23.4269L8.7954 23.4035L1.24757 23.3879V12.7835V2.17911H8.63945C15.6571 2.17911 16.0391 2.18691 16.3432 2.32726ZM34.9321 12.7835V23.3879L27.3842 23.4035L19.8364 23.4269L19.275 23.7076L18.7136 23.9805V13.8751C18.7136 2.63915 18.6824 3.33311 19.236 2.76391C19.8364 2.14012 19.2516 2.17911 27.548 2.17911H34.9321V12.7835ZM16.3432 24.7836C16.9748 25.0721 17.4582 25.7972 17.466 26.46C17.4738 26.7329 17.583 26.9045 17.8403 27.0448C18.2146 27.2475 18.7136 26.9123 18.7136 26.4756C18.7136 26.0312 18.8774 25.6335 19.2048 25.2748C19.8364 24.5887 19.1892 24.6354 27.548 24.6354H34.9321V25.2592V25.883H27.6416H20.3433L20.1561 26.0779C19.9846 26.2417 19.9612 26.3353 19.9612 26.8187C19.9612 27.3021 19.9378 27.3957 19.7662 27.5594C19.5791 27.7544 19.5635 27.7544 18.0898 27.7544C16.6161 27.7544 16.6005 27.7544 16.4134 27.5594C16.2419 27.3957 16.2185 27.3021 16.2185 26.8187C16.2185 26.3353 16.1951 26.2417 16.0235 26.0779L15.8364 25.883H8.53808H1.24757V25.2592V24.6354H8.63945C15.6571 24.6354 16.0391 24.6432 16.3432 24.7836Z" fill="#990000"/>
<path d="M2.74454 6.80303C2.53401 7.02916 2.52621 7.40343 2.72114 7.64515L2.86929 7.83228L9.25531 7.85567C13.7076 7.87127 15.6959 7.84788 15.8363 7.7855C16.2183 7.62955 16.3197 7.16951 16.0546 6.82642L15.8986 6.62369H9.40346H2.90828L2.74454 6.80303Z" fill="#990000"/>
<path d="M2.76818 10.4831C2.64342 10.6 2.57324 10.7638 2.57324 10.9119C2.57324 11.0601 2.64342 11.2238 2.76818 11.3408L2.95531 11.5357H9.37252C16.4135 11.5357 16.0704 11.5591 16.1796 11.0757C16.242 10.7794 16.0548 10.4051 15.8131 10.3349C15.7118 10.3115 12.78 10.2881 9.29455 10.2881H2.95531L2.76818 10.4831Z" fill="#990000"/>
<path d="M2.72925 14.187C2.52651 14.3897 2.51872 14.8342 2.72145 15.0369C2.80722 15.1227 2.99435 15.2162 3.13471 15.2396C3.27506 15.263 6.19126 15.2786 9.61429 15.263L15.8444 15.2396L16.0315 15.0213C16.2576 14.7562 16.2732 14.5067 16.0549 14.2338L15.8989 14.031H9.38817C2.98656 14.031 2.88519 14.031 2.72925 14.187Z" fill="#990000"/>
<path d="M2.76818 17.8907C2.64342 18.0077 2.57324 18.1714 2.57324 18.3196C2.57324 18.4677 2.64342 18.6315 2.76818 18.7484L2.95531 18.9434H9.38032C15.5714 18.9434 15.8209 18.9356 15.9925 18.7952C16.2498 18.5847 16.2498 18.0545 15.9925 17.8439C15.8209 17.7036 15.5714 17.6958 9.38032 17.6958H2.95531L2.76818 17.8907Z" fill="#990000"/>
<path d="M20.1247 6.82642C19.8596 7.16951 19.961 7.62955 20.3431 7.7855C20.4834 7.84788 22.4717 7.87127 26.924 7.85567L33.31 7.83228L33.4582 7.64515C33.6609 7.39563 33.6531 7.00576 33.427 6.79524L33.2477 6.62369H26.7681H20.2807L20.1247 6.82642Z" fill="#990000"/>
<path d="M20.3277 10.3427C20.1717 10.3816 19.9612 10.7481 19.9612 10.9898C19.9612 11.0756 20.047 11.2393 20.1561 11.3407L20.3433 11.5356H26.7839H33.2245L33.4116 11.3407C33.5363 11.2238 33.6065 11.06 33.6065 10.9119C33.6065 10.7637 33.5363 10.6 33.4116 10.483L33.2245 10.2881L26.8462 10.2959C23.3374 10.3037 20.4056 10.3193 20.3277 10.3427Z" fill="#990000"/>
<path d="M20.125 14.2338C19.9067 14.5067 19.9223 14.7562 20.1484 15.0213L20.3355 15.2396L26.5656 15.263C29.9887 15.2786 32.9049 15.263 33.0452 15.2396C33.1856 15.2162 33.3727 15.1227 33.4585 15.0369C33.6612 14.8342 33.6534 14.3897 33.4507 14.187C33.2947 14.031 33.1934 14.031 26.7917 14.031H20.281L20.125 14.2338Z" fill="#990000"/>
<path d="M20.1874 17.8439C20.047 17.9531 20.0002 18.0701 20.0002 18.3196C20.0002 18.5691 20.047 18.686 20.1874 18.7952C20.3589 18.9356 20.6084 18.9434 26.7995 18.9434H33.2245L33.4117 18.7484C33.5364 18.6315 33.6066 18.4677 33.6066 18.3196C33.6066 18.1714 33.5364 18.0077 33.4117 17.8907L33.2245 17.6958H26.7995C20.6084 17.6958 20.3589 17.7036 20.1874 17.8439Z" fill="#990000"/>
</svg>
