<svg width="35" height="35" viewBox="0 0 35 35" fill="none" xmlns="http://www.w3.org/2000/svg">
<path d="M17.1661 0.131262C16.9481 0.32973 16.927 0.535042 16.9552 2.44444L16.9763 4.18274L17.1731 4.34699C17.4192 4.5523 17.588 4.5523 17.8341 4.34699L18.0309 4.18274L18.052 2.44444C18.0661 1.49316 18.0591 0.610323 18.0309 0.49398C17.9466 0.0422941 17.4825 -0.14933 17.1661 0.131262Z" fill="#990000"/>
<path d="M5.13179 4.99038C5.04744 5.07251 4.99121 5.21623 4.99121 5.3531C4.99121 5.55157 5.14585 5.72266 6.39 6.934C7.61307 8.12481 7.81691 8.2959 8.01373 8.2959C8.30192 8.2959 8.52685 8.0769 8.52685 7.79631C8.52685 7.60468 8.35815 7.41306 7.12806 6.21541C5.88391 5.01091 5.69412 4.85351 5.49731 4.85351C5.36375 4.85351 5.21614 4.90826 5.13179 4.99038Z" fill="#990000"/>
<path d="M27.8783 6.21541C26.6482 7.41306 26.4795 7.60468 26.4795 7.79631C26.4795 8.0769 26.7044 8.2959 26.9926 8.2959C27.1894 8.2959 27.3933 8.12481 28.6163 6.934C29.8605 5.72266 30.0151 5.55157 30.0151 5.3531C30.0151 5.05882 29.8043 4.85351 29.509 4.85351C29.3122 4.85351 29.1224 5.01091 27.8783 6.21541Z" fill="#990000"/>
<path d="M16.3572 5.74995C15.6965 5.81839 14.5296 6.08529 13.9181 6.31113C11.5422 7.18029 9.37025 9.06231 8.25263 11.2318C7.97146 11.7724 7.96443 11.8888 8.16125 12.1351C8.33697 12.3473 8.70952 12.3815 8.87119 12.1899C8.92742 12.1283 9.12423 11.8066 9.30699 11.485C10.4246 9.52084 12.2873 7.981 14.4664 7.22135C16.3291 6.57119 18.6698 6.57119 20.5395 7.22135C22.831 8.01522 24.7078 9.62349 25.8184 11.745C26.5424 13.1343 26.8516 14.4004 26.8516 16.0155C26.8516 17.5348 26.5494 18.8283 25.8816 20.1491C25.4529 20.9909 24.9257 21.7095 23.9908 22.7224C22.9083 23.8995 22.5217 24.4949 22.2757 25.3504L22.1632 25.761H17.5732H12.9902L12.8286 25.3093C12.5334 24.447 12.1397 23.9063 10.7269 22.3939C9.68656 21.2783 9.068 20.2586 8.61111 18.9309C8.23154 17.8154 8.1261 17.0216 8.18233 15.6802C8.20342 15.0506 8.2456 14.3936 8.26668 14.2156C8.30183 13.9487 8.28074 13.8734 8.15422 13.7503C7.95037 13.5518 7.54971 13.586 7.37399 13.8187C7.07876 14.2156 7.00144 16.4604 7.2334 17.8017C7.5708 19.7043 8.44241 21.4563 9.76388 22.8935C11.1697 24.4196 11.3384 24.6249 11.5985 25.1245C11.7461 25.4188 11.8867 25.7884 11.9148 25.9458C11.9359 26.11 11.9781 27.1503 12.0062 28.2589L12.0554 30.2847L12.2873 30.7364C12.4349 31.0375 12.6528 31.3112 12.927 31.5576L13.3347 31.9272L13.3698 32.5089C13.426 33.5491 13.9673 34.3567 14.9022 34.7878L15.3591 35H17.6084H19.8577L20.3146 34.7878C21.2494 34.3567 21.7907 33.5491 21.8469 32.5089L21.8821 31.9272L22.2898 31.5576C22.5639 31.3112 22.7818 31.0375 22.9294 30.7364L23.1614 30.2847L23.1965 27.9852C23.2317 25.8157 23.2457 25.672 23.3933 25.3093C23.5972 24.8097 24.1173 24.098 24.757 23.4204C26.5213 21.5795 27.3929 19.937 27.7795 17.7538C27.899 17.0558 27.913 16.7478 27.8849 15.6665C27.8287 13.8871 27.5756 12.8879 26.7814 11.3207C24.8554 7.53616 20.6871 5.30511 16.3572 5.74995ZM22.1421 27.6772V28.5327H21.4041C20.7574 28.5327 20.6449 28.5532 20.5254 28.6696C20.3146 28.8749 20.3357 29.2376 20.5676 29.4155C20.7293 29.5387 20.8558 29.5592 21.4463 29.5592H22.1421V29.744C22.1351 29.9972 21.8961 30.5037 21.6642 30.7432C21.5587 30.8527 21.3479 31.0101 21.1932 31.0854C20.9191 31.236 20.8558 31.236 17.6084 31.236C14.3609 31.236 14.2977 31.236 14.0235 31.0854C13.8689 31.0101 13.658 30.8527 13.5526 30.7432C13.3206 30.5037 13.0816 29.9972 13.0746 29.744V29.5592H15.8089H18.5503L18.726 29.4087C18.979 29.1828 19.0001 28.8954 18.7682 28.6696C18.6346 28.5395 18.5362 28.5327 15.8511 28.5327H13.0746V27.6772V26.8218H17.6084H22.1421V27.6772ZM20.8066 32.5499C20.7996 33.1111 20.2794 33.7544 19.689 33.9255C19.3235 34.035 15.8933 34.035 15.5278 33.9255C14.9373 33.7544 14.4172 33.1111 14.4101 32.5499V32.2967H17.6084H20.8066V32.5499Z" fill="#990000"/>
<path d="M21.0034 12.7851C20.5395 12.9356 20.2724 13.2094 18.5573 15.3583C17.5803 16.5833 16.7579 17.5825 16.7297 17.5825C16.7016 17.5825 16.2729 17.1445 15.7808 16.6039C14.6351 15.3651 14.4593 15.2077 13.9954 15.0777C12.5896 14.6671 11.3525 16.1043 12.0202 17.3772C12.0905 17.5072 12.6739 18.1848 13.3206 18.8828C16.1042 21.8804 16.0409 21.8256 16.8352 21.8256C17.3342 21.8256 17.7279 21.6682 18.0372 21.3397C18.5011 20.8538 20.3146 18.5201 20.3568 18.3559C20.4552 17.9794 19.8507 17.6236 19.5344 17.8699C19.4711 17.9179 18.9299 18.5817 18.3254 19.3345C17.7208 20.0942 17.1796 20.7306 17.1163 20.758C16.9476 20.8196 16.6665 20.8059 16.5329 20.7375C16.3572 20.6417 12.9762 16.9803 12.9129 16.816C12.7864 16.4738 13.1519 16.0085 13.5526 16.0085C13.7635 16.0085 13.9743 16.2001 15.2536 17.5825C16.4837 18.9033 16.6524 19.0402 16.9758 18.8965C17.0601 18.8554 17.995 17.7468 19.0423 16.4259C20.0967 15.1051 21.0386 13.969 21.137 13.8869C21.622 13.5173 22.2898 14.0375 22.0438 14.5918C21.9945 14.715 21.7134 15.1051 21.4252 15.461C20.8137 16.2138 20.7574 16.337 20.9121 16.6175C21.0386 16.8571 21.2987 16.9529 21.5377 16.8434C21.7134 16.7681 22.817 15.4404 23.0067 15.0846C23.3933 14.3523 23.0841 13.3942 22.3179 12.9562C21.9735 12.7645 21.3408 12.6824 21.0034 12.7851Z" fill="#990000"/>
<path d="M0.141157 16.7069C-0.154066 17.0149 0.0357199 17.4665 0.50667 17.5487C0.633194 17.5692 1.53995 17.5829 2.517 17.5692L4.30239 17.5487L4.47109 17.357C4.67493 17.1244 4.68196 16.9738 4.49218 16.7343L4.35159 16.5563H2.32018C0.316884 16.5563 0.281739 16.5563 0.141157 16.7069Z" fill="#990000"/>
<path d="M30.5142 16.7343C30.3244 16.9738 30.3315 17.1244 30.5353 17.357L30.704 17.5487L32.4894 17.5692C33.4664 17.5829 34.3732 17.5692 34.4997 17.5487C34.9566 17.4665 35.1534 17.008 34.8652 16.7069C34.7246 16.5563 34.6895 16.5563 32.6862 16.5563H30.6548L30.5142 16.7343Z" fill="#990000"/>
<path d="M7.838 25.7954C7.76068 25.8228 7.08589 26.4456 6.34783 27.1779C5.15288 28.3481 4.99121 28.5329 4.99121 28.7245C4.99121 29.012 5.20911 29.2173 5.50434 29.2173C5.70818 29.2173 5.88391 29.0667 7.12806 27.8554C8.35113 26.6646 8.52685 26.4661 8.52685 26.2745C8.52685 25.9323 8.14728 25.6654 7.838 25.7954Z" fill="#990000"/>
<path d="M26.8169 25.7954C26.599 25.8776 26.4795 26.0555 26.4795 26.2813C26.4795 26.4593 26.6763 26.6851 27.8783 27.8554C29.1224 29.0667 29.2982 29.2173 29.502 29.2173C29.8043 29.2173 30.0151 29.012 30.0151 28.7245C30.0151 28.5329 29.8535 28.3481 28.6304 27.1573C27.8642 26.4114 27.1754 25.7886 27.0981 25.7749C27.0207 25.7544 26.8942 25.7612 26.8169 25.7954Z" fill="#990000"/>
</svg>
